<?xml version="1.0" standalone="no"?><!DOCTYPE svg PUBLIC "-//W3C//DTD SVG 1.1//EN" "http://www.w3.org/Graphics/SVG/1.1/DTD/svg11.dtd"><svg class="icon" height="512" viewBox="0 0 1159 1024" version="1.1" xmlns="http://www.w3.org/2000/svg"><path d="M-3.1e-05 692.830485" fill="#ff6d1b" /><path d="M1088.731249 85.857437c7.485485 15.185864-0.014326 34.183544-16.746406 42.432415L247.458944 534.727631c-16.73515 8.249895-36.370349 2.625804-43.85481-12.56006l0 0c-7.485485-15.183817 0.013303-34.18252 16.747429-42.431392L1044.877462 73.2984C1061.610565 65.049528 1081.244741 70.671573 1088.731249 85.857437L1088.731249 85.857437z" fill="#ff6d1b" /><path d="M1067.131302 69.833485c16.506952 3.764744 27.376511 17.833157 24.27794 31.420617L938.702281 770.786974c-3.100618 13.58746-18.995633 21.551852-35.500539 17.786085l0 0c-16.505929-3.76372-27.373441-17.831111-24.273846-31.419594L1031.63281 87.621617C1034.731381 74.033134 1050.626397 66.068741 1067.131302 69.833485L1067.131302 69.833485z" fill="#ff6d1b" /><path d="M1059.319383 99.368148c12.483312 11.435447 14.630209 29.41596 4.79112 40.155559L579.307935 668.76437c-9.840112 10.741645-27.938306 10.175757-40.421618-1.257643l0 0c-12.483312-11.43647-14.626115-29.41289-4.786003-40.155559L1018.898788 98.110505C1028.737877 87.369883 1046.83607 87.933725 1059.319383 99.368148L1059.319383 99.368148z" fill="#ff6d1b" /><path d="M502.152694 622.729917c-6.019087 16.604166-24.359804 25.184589-40.964994 19.166525L220.660601 554.706661c-16.60519-6.02011-25.186635-24.360827-19.167548-40.966017l0 0c6.02011-16.604166 24.359804-25.185612 40.964994-19.166525l240.526075 87.191828C499.590335 587.78401 508.170758 606.125751 502.152694 622.729917L502.152694 622.729917z" fill="#ff6d1b" /><path d="M937.345377 775.375479c-6.019087 16.604166-24.359804 25.185612-40.966017 19.166525l-240.528122-87.191828c-16.603143-6.019087-25.185612-24.359804-19.165502-40.96397l0 0c6.02011-16.604166 24.361851-25.185612 40.96397-19.166525l240.528122 87.189781C934.781995 740.430596 943.362418 758.77029 937.345377 775.375479L937.345377 775.375479z" fill="#ff6d1b" /><path d="M585.575685 911.117047c0 17.662265-14.3181 31.980365-31.980365 31.980365l0 0c-17.662265 0-31.980365-14.3181-31.980365-31.980365L521.614954 655.275147c0-17.662265 14.3181-31.980365 31.980365-31.980365l0 0c17.662265 0 31.980365 14.3181 31.980365 31.980365L585.575685 911.117047z" fill="#ff6d1b" /></svg>